<svg xmlns="http://www.w3.org/2000/svg" width="1440" height="1079" fill="none"><path stroke="#fff" stroke-dasharray="1.88 1.88" stroke-miterlimit="10" stroke-opacity=".24" stroke-width=".94" d="m106.003 0-.007 1078.43M226.006 0l-.01 1078.43M346.006 0l-.01 1078.43M466.006 0l-.01 1078.43M586.005 0l-.006 1078.43M706.005 0l-.006 1078.43M826.008 0l-.01 1078.43M946.008 0l-.01 1078.43M1066.01 0l-.01 1078.43M1186.01 0l-.01 1078.43M1306.01 0l-.01 1078.43M1426.01 0l-.01 1078.43M1546.01 0l-.01 1078.43M46.003 0l-.006 1078.43M166.006 0l-.01 1078.43M286.006 0l-.01 1078.43M406.006 0l-.01 1078.43M526.006 0l-.007 1078.43M646.005 0l-.006 1078.43M766.005 0l-.007 1078.43M886.008 0l-.01 1078.43M1006.01 0l-.01 1078.43M1126.01 0l-.01 1078.43M1246.01 0l-.01 1078.43M1366.01 0l-.01 1078.43M1486.01 0l-.01 1078.43M-14 960.566l1620 .01M-14 840.495l1620 .01M-14 720.425l1620 .006M-14 600.354l1620 .006M-14 480.28l1620 .01M-14 360.209l1620 .01M-14 240.138l1620 .01M-14 120.067l1620 .01M-14 1020.6l1620 .01M-14 900.531l1620 .01M-14 780.46l1620 .01M-14 660.389l1620 .007M-14 540.318l1620 .007M-14 420.244l1620 .01M-14 300.174l1620 .009M-14 180.103l1620 .01M-14 60.033l1620 .009"/></svg>