<svg xmlns="http://www.w3.org/2000/svg" width="180" height="210" fill="none"><path fill="#000" d="M81.605 23.594h16.488v15.739H81.605zm34.755 4.791 14.251 8.293-7.916 13.603-14.25-8.293zm27.13 21.147 8.244 14.28-13.63 7.869-8.244-14.28zm13.046 32.509v16.488h-15.739V82.041zm-4.802 34.718-8.244 14.279-13.63-7.87 8.244-14.279zm-20.985 27.183-14.279 8.244-7.87-13.63 14.28-8.244zM98.09 156.406H81.6v-15.739h16.49zm-33.67-4.219-14.278-8.244 7.87-13.63 14.278 8.244zm-27.91-21.875-8.243-14.279 13.63-7.87 8.244 14.28zm-13.045-32.21V81.614h15.739v16.488zm4.801-34.29 8.244-14.28 13.63 7.87-8.243 14.28zm20.839-27.183 14.279-8.244 7.87 13.63-14.28 8.244z"/></svg>